<?xml version="1.0" encoding="UTF-8"?>
<svg width="32" height="32" viewBox="0 0 32 32" fill="none" xmlns="http://www.w3.org/2000/svg">
  <rect width="32" height="32" rx="8" fill="url(#paint0_linear)"/>
  <path d="M10 22V10H14.4C16.0667 10 17.3333 10.4 18.2 11.2C19.0667 12 19.5 13.1333 19.5 14.6C19.5 16.0667 19.0667 17.2 18.2 18C17.3333 18.8 16.0667 19.2 14.4 19.2H12.8V22H10ZM12.8 16.8H14.4C15.2 16.8 15.8 16.6 16.2 16.2C16.6 15.8 16.8 15.2667 16.8 14.6C16.8 13.9333 16.6 13.4 16.2 13C15.8 12.6 15.2 12.4 14.4 12.4H12.8V16.8Z" fill="white"/>
  <defs>
    <linearGradient id="paint0_linear" x1="0" y1="0" x2="32" y2="32" gradientUnits="userSpaceOnUse">
      <stop stop-color="#3b82f6"/>
      <stop offset="1" stop-color="#8b5cf6"/>
    </linearGradient>
  </defs>
</svg>
